<?xml version="1.0" standalone="no"?>
<!DOCTYPE svg PUBLIC "-//W3C//DTD SVG 20010904//EN"
 "http://www.w3.org/TR/2001/REC-SVG-20010904/DTD/svg10.dtd">
<svg version="1.0" xmlns="http://www.w3.org/2000/svg"
 width="200.000000pt" height="200.000000pt" viewBox="0 0 200.000000 200.000000"
 preserveAspectRatio="xMidYMid meet">

<g transform="translate(0.000000,200.000000) scale(0.100000,-0.100000)"
fill="#000000" stroke="none">
<path d="M1715 1832 c-74 -30 -151 -71 -250 -133 l-61 -38 -64 21 c-53 17 -91
21 -205 22 -121 1 -151 -2 -219 -23 -73 -23 -80 -24 -105 -9 -213 131 -341
183 -428 176 -157 -13 -156 -184 3 -449 30 -48 54 -94 54 -100 0 -7 -12 -47
-27 -88 -24 -67 -27 -91 -27 -206 0 -116 3 -138 27 -208 29 -82 33 -112 17
-122 -19 -12 -122 -206 -147 -277 -47 -135 -20 -227 71 -248 79 -18 229 37
410 148 l79 49 66 -21 c90 -29 345 -30 434 -3 l57 19 89 -56 c189 -120 344
-172 425 -144 59 20 81 57 79 131 -2 85 -63 233 -149 362 -19 27 -34 55 -34
61 0 6 9 32 20 56 28 63 50 177 50 256 0 63 -31 207 -60 277 -12 28 -10 35 22
85 104 163 143 261 143 358 0 70 -1 75 -33 103 -29 26 -39 29 -100 29 -49 -1
-85 -8 -137 -28z m203 -49 c32 -44 -2 -175 -82 -310 -28 -48 -56 -88 -61 -90
-6 -2 -29 20 -50 49 -44 57 -164 157 -214 177 -17 8 -30 19 -28 24 10 31 242
150 327 168 47 10 92 2 108 -18z m-1422 -14 c64 -20 110 -42 222 -106 23 -14
42 -28 42 -33 0 -4 -25 -24 -56 -45 -60 -39 -151 -125 -197 -185 l-26 -35 -20
25 c-38 47 -111 197 -126 259 -35 134 10 167 161 120z m803 -139 c99 -24 207
-76 287 -140 56 -45 144 -151 144 -175 0 -18 -200 -268 -208 -261 -4 4 -60 59
-124 123 l-116 117 18 23 c42 54 37 133 -12 189 -59 67 -131 80 -214 38 l-52
-26 -56 42 c-31 23 -56 46 -56 51 0 17 111 37 214 38 57 1 119 -6 175 -19z
m-102 -98 c12 -7 33 -54 33 -73 0 -5 -11 -9 -25 -9 -16 0 -25 6 -25 16 0 9 -7
14 -17 12 -15 -3 -19 -16 -21 -71 -3 -62 -1 -67 18 -67 13 0 20 7 20 20 0 15
7 20 26 20 24 0 25 -2 19 -32 -12 -55 -23 -68 -59 -68 -56 0 -71 27 -71 130 0
72 3 92 19 109 19 21 60 27 83 13z m-429 -225 c25 -64 47 -115 49 -113 3 2 23
55 46 118 l42 113 38 3 c33 3 37 1 37 -20 1 -32 33 -99 59 -122 21 -19 21 -24
21 -363 l0 -343 -85 0 -85 0 -1 273 -1 272 -31 -68 c-20 -44 -36 -67 -46 -65
-8 2 -26 35 -40 73 l-26 70 -3 -277 -2 -278 -85 0 -85 0 0 425 0 426 77 -3 76
-3 45 -118z m1043 -208 c13 -86 6 -208 -17 -277 -22 -64 -31 -71 -51 -42 -35
49 -147 185 -160 193 -24 15 -13 39 55 121 38 44 82 99 98 120 l29 39 17 -40
c9 -22 22 -73 29 -114z m-213 -230 c34 -41 79 -98 99 -127 34 -49 36 -54 22
-80 -8 -15 -48 -61 -89 -103 -61 -61 -95 -85 -170 -123 -102 -50 -237 -85
-326 -86 -56 0 -204 27 -217 40 -5 4 9 20 30 36 115 85 285 236 418 370 83 83
155 151 160 150 6 -2 38 -36 73 -77z m-1088 -263 c30 -49 159 -167 214 -197
25 -13 45 -28 43 -34 -6 -18 -158 -104 -240 -135 -87 -34 -166 -42 -193 -19
-13 11 -15 26 -12 80 4 54 15 86 51 161 48 98 97 178 108 178 4 0 17 -16 29
-34z m1320 -61 c58 -96 110 -228 110 -280 0 -45 -29 -75 -73 -75 -71 0 -216
60 -346 143 l-54 35 29 17 c93 57 143 96 200 159 35 39 64 74 64 78 0 25 25
-2 70 -77z"/>
<path d="M0 1000 l0 -420 150 0 150 0 0 54 c0 85 -1 86 -86 86 l-74 0 0 120 0
120 65 0 65 0 0 75 0 74 -62 3 -63 3 0 80 0 80 73 3 72 3 0 69 0 70 -145 0
-145 0 0 -420z"/>
</g>
</svg>
