<?xml version="1.0" encoding="utf-8"?>
<svg xmlns="http://www.w3.org/2000/svg" viewBox="228.779 372.25 357.15 236.533" height="1056" width="816" id="svg2" version="1.1">
  <g transform="matrix(1.3333333,0,0,-1.3333333,0,1056)" id="g10">
    <g transform="scale(0.1)" id="g12">
      <path id="path26" style="fill:#000000;fill-opacity:1;fill-rule:evenodd;stroke:none" d="m 3588.14,4491.83 164.29,77.47 V 4002.58 H 3588.14 Z M 3960,4317.91 v -315.33 h -164.29 v 315.33 z m -1623.49,173.92 74.84,35.29 c -15.51,5.21 -29.92,9.22 -42.85,11.76 -136.05,26.75 -160.75,-22.63 -90.2,-144.63 16.89,-27.14 36.07,-54.59 58.21,-82 z m 98.72,46.55 c -40.22,16.08 -77.83,27.66 -109.84,32.82 -145.87,23.5 -207.03,-39.25 -126.45,-184.44 34.73,-57.85 78.71,-112.84 137.57,-166.67 v 92.16 c 37.88,-46.89 84.44,-93.66 143.18,-138.54 6.63,-5.07 13.69,-10.39 21.11,-15.91 v -61.52 61.52 78.28 c 0,29.07 11.5,46.79 30.91,46.79 20.2,0 28.47,-13.35 28.47,-41.42 v -125.81 -55.68 55.68 c 39.15,-26.44 83.55,-53.67 129.8,-76.41 11.9,-5.86 23.1,-11.06 33.8,-15.7 v -20.95 h -44.65 c 70.79,-26.86 182.3,-50.42 252.72,-26.81 -87.95,10.7 -137.04,16.94 -208.07,47.76 v 262.57 c 0,17.99 -7.58,104.75 -118.77,104.75 -51.27,0 -89.71,-33.94 -104.21,-59.62 v 158.73 c 88.51,-42.35 187.69,-103.46 254.84,-155.92 8,-6.25 16.2,-12.62 24.52,-19.2 -15.27,-23.04 -24.24,-50.6 -24.24,-81.35 v -79.44 c 0,-56.55 30.35,-102.35 74.38,-128.98 33.14,-20.04 74.04,-28.11 115.61,-28.11 41.57,0 82.48,8.07 115.61,28.11 44.03,26.63 74.39,72.43 74.39,128.98 v 79.44 c 0,56.55 -30.36,102.35 -74.39,128.99 -33.13,20.03 -74.04,28.1 -115.61,28.1 -41.57,0 -82.47,-8.07 -115.61,-28.1 -16.42,-9.94 -30.94,-22.53 -42.69,-37.37 -14.66,11.89 -28.82,22.93 -42.03,33.24 -69.19,54.06 -159.12,109.75 -244.78,151.02 v 59.93 z m 243.9,-535.8 h -118.95 v 57.38 c 37.05,-21.24 75.3,-40.33 114.32,-55.6 z m -178.33,93.7 v -93.7 h -164.29 v 217.51 c 27.5,-25.14 58.24,-50.04 92.8,-74.84 23.04,-16.54 46.92,-33.04 71.49,-48.97 z m 1377.05,412.29 c 45.15,0 81.76,-36.6 81.76,-81.75 0,-45.16 -36.61,-81.76 -81.76,-81.76 -45.15,0 -81.76,36.6 -81.76,81.76 0,45.15 36.61,81.75 81.76,81.75 z m -519.44,-224.86 c 16.6,0 30.17,-11.67 30.17,-28.27 v -121.89 c 0,-16.6 -13.57,-29.72 -30.17,-29.72 -16.6,0 -30.17,13.11 -30.17,29.72 v 121.89 c 0,16.61 13.57,28.27 30.17,28.27 z m 189.99,-50.22 c 0,56.55 -30.35,102.35 -74.38,128.99 -33.14,20.03 -74.04,28.1 -115.61,28.1 -41.57,0 -82.47,-8.07 -115.61,-28.1 -44.03,-26.64 -74.38,-72.44 -74.38,-128.99 v -79.44 c 0,-56.55 30.35,-102.35 74.38,-128.98 33.14,-20.04 74.04,-28.11 115.61,-28.11 41.57,0 82.47,8.07 115.61,28.11 44.03,26.63 74.38,72.43 74.38,128.98 z m -602.49,50.22 c 16.6,0 30.17,-11.67 30.17,-28.27 v -121.89 c 0,-16.6 -13.57,-29.72 -30.17,-29.72 -16.6,0 -30.17,13.11 -30.17,29.72 v 121.89 c 0,16.61 13.57,28.27 30.17,28.27"/>
    </g>
  </g>
</svg>